<?xml version="1.0" encoding="UTF-8"?>
<svg xmlns="http://www.w3.org/2000/svg" width="138" height="49" viewBox="0 0 138 49" fill="none">
  <path d="M21.4266 14.528H27.5395C27.3737 13.8419 26.972 13.2353 26.4041 12.8134C25.8362 12.3914 25.138 12.1808 24.4305 12.218C23.7366 12.1876 23.0543 12.403 22.5044 12.8258C21.9546 13.2486 21.5728 13.8516 21.4266 14.528ZM32.6357 16.022C32.6338 16.4801 32.5987 16.9375 32.5306 17.3905H21.3552C21.6913 19.1147 22.792 20.0061 24.4305 20.0061C24.97 20.0345 25.5073 19.9188 25.9867 19.6708C26.4661 19.4228 26.8702 19.0517 27.1572 18.5958H32.3206C31.2619 22.0232 28.2117 24.1659 24.4305 24.1659C19.7293 24.1659 16.2422 20.7426 16.2422 16.1518C16.2422 11.5609 19.6999 8.16699 24.4305 8.16699C29.2872 8.16699 32.6525 11.6195 32.6525 16.022H32.6357Z" fill="white"></path>
  <path d="M60.4128 19.0181C60.8448 19.0279 61.2741 18.9488 61.6739 18.7857C62.0737 18.6226 62.4353 18.379 62.7363 18.0703C63.0372 17.7615 63.2709 17.3941 63.4227 16.9912C63.5745 16.5883 63.6411 16.1585 63.6184 15.7288C63.6341 15.2989 63.5625 14.8703 63.4082 14.4686C63.2538 14.0668 63.0197 13.7002 62.7199 13.3906C62.4201 13.081 62.0607 12.8347 61.6633 12.6665C61.2658 12.4983 60.8384 12.4116 60.4065 12.4116C59.9747 12.4116 59.5473 12.4983 59.1498 12.6665C58.7524 12.8347 58.393 13.081 58.0932 13.3906C57.7934 13.7002 57.5593 14.0668 57.4049 14.4686C57.2506 14.8703 57.179 15.2989 57.1947 15.7288C57.1719 16.1596 57.2389 16.5905 57.3915 16.9943C57.544 17.398 57.7788 17.766 58.0811 18.075C58.3834 18.3839 58.7466 18.6272 59.1479 18.7895C59.5492 18.9519 59.9799 19.0297 60.4128 19.0181ZM68.4835 8.65632V22.0019C68.4835 26.7225 65.383 29.6436 60.4002 29.6436C56.1233 29.6436 53.132 27.4967 52.4178 23.9396H57.4257C57.787 24.9439 59.0726 25.4838 60.333 25.4838C62.0724 25.4838 63.4714 24.3832 63.4714 22.5962V22.1484C62.2949 22.8889 60.9306 23.2794 59.539 23.2742C55.2158 23.2742 52.0061 20.0727 52.0061 15.7413C51.982 14.7481 52.1602 13.7602 52.5299 12.8374C52.8996 11.9146 53.4531 11.0759 54.157 10.372C54.861 9.66808 55.7007 9.11347 56.6257 8.74164C57.5507 8.36981 58.5417 8.18846 59.539 8.20853C61.2807 8.20092 62.9672 8.81731 64.2907 9.94526L64.9503 8.6898L68.4835 8.65632Z" fill="white"></path>
  <path d="M74.9383 14.528H81.0302C80.866 13.8419 80.4653 13.2349 79.898 12.8127C79.3306 12.3906 78.6326 12.1801 77.9254 12.218C77.2343 12.1917 76.556 12.4089 76.0097 12.8313C75.4634 13.2538 75.084 13.8546 74.9383 14.528ZM86.1474 16.022C86.1441 16.4802 86.1076 16.9376 86.0382 17.3905H74.8459C75.1862 19.1147 76.2827 20.0061 77.9254 20.0061C78.467 20.0373 79.0071 19.9228 79.489 19.6747C79.971 19.4266 80.377 19.0539 80.6647 18.5958H85.8323C84.7736 22.0232 81.7234 24.1659 77.9423 24.1659C73.2368 24.1659 69.7539 20.7426 69.7539 16.1518C69.7539 11.5609 73.2116 8.16699 77.9423 8.16699C82.799 8.16699 86.1642 11.6195 86.1642 16.022H86.1474Z" fill="white"></path>
  <path d="M112.074 19.5201C113.965 19.5201 115.322 18.1516 115.322 16.1721C115.322 14.1927 113.965 12.8242 112.074 12.8242C110.184 12.8242 108.822 14.1927 108.822 16.1721C108.822 18.1516 110.179 19.5201 112.074 19.5201ZM103.621 16.1721C103.621 11.5185 107.159 8.1748 112.074 8.1748C116.99 8.1748 120.523 11.5227 120.523 16.1721C120.523 20.8216 116.969 24.1737 112.074 24.1737C107.18 24.1737 103.621 20.8257 103.621 16.1721Z" fill="white"></path>
  <path d="M129.916 19.0181C130.348 19.0279 130.777 18.9488 131.177 18.7857C131.577 18.6226 131.938 18.379 132.239 18.0703C132.54 17.7615 132.774 17.3941 132.926 16.9912C133.077 16.5883 133.144 16.1585 133.121 15.7288C133.137 15.2989 133.066 14.8703 132.911 14.4686C132.757 14.0668 132.523 13.7002 132.223 13.3906C131.923 13.081 131.564 12.8347 131.166 12.6665C130.769 12.4983 130.341 12.4116 129.91 12.4116C129.478 12.4116 129.05 12.4983 128.653 12.6665C128.255 12.8347 127.896 13.081 127.596 13.3906C127.296 13.7002 127.062 14.0668 126.908 14.4686C126.754 14.8703 126.682 15.2989 126.698 15.7288C126.675 16.1596 126.742 16.5905 126.894 16.9943C127.047 17.398 127.282 17.766 127.584 18.075C127.886 18.3839 128.25 18.6272 128.651 18.7895C129.052 18.9519 129.483 19.0297 129.916 19.0181ZM137.974 8.65632V22.0019C137.974 26.7225 134.873 29.6436 129.895 29.6436C125.618 29.6436 122.627 27.4967 121.933 23.9396H126.941C127.298 24.9439 128.588 25.4838 129.849 25.4838C131.588 25.4838 132.987 24.3832 132.987 22.5962V22.1484C131.811 22.8889 130.446 23.2794 129.055 23.2742C124.731 23.2742 121.522 20.0727 121.522 15.7413C121.498 14.7481 121.676 13.7602 122.046 12.8374C122.415 11.9146 122.969 11.0759 123.673 10.372C124.377 9.66808 125.216 9.11347 126.141 8.74164C127.066 8.36981 128.057 8.18846 129.055 8.20853C130.796 8.20092 132.483 8.81731 133.806 9.94526L134.466 8.6898L137.974 8.65632Z" fill="white"></path>
  <path d="M9.21346 8.2135C7.74891 8.22166 6.33084 8.72645 5.19281 9.64473V0.915039L0 2.64759V23.6725H5.19281V15.6542C5.19281 13.7292 6.17172 12.616 7.743 12.616C9.09582 12.616 9.70921 13.499 9.70921 15.2316V23.6725H14.8978V14.6331C14.8978 10.7412 12.6753 8.2135 9.21346 8.2135Z" fill="white"></path>
  <path d="M42.5487 19.6C42.0983 19.6055 41.6515 19.5196 41.2354 19.3478C40.8194 19.1759 40.4427 18.9216 40.1284 18.6002C39.814 18.2789 39.5685 17.8972 39.4068 17.4785C39.2451 17.0597 39.1705 16.6126 39.1876 16.1642C39.1876 15.273 39.5431 14.4182 40.1758 13.788C40.8085 13.1578 41.6665 12.8038 42.5613 12.8038C43.456 12.8038 44.3141 13.1578 44.9468 13.788C45.5795 14.4182 45.9349 15.273 45.9349 16.1642C45.9521 16.6126 45.8775 17.0597 45.7158 17.4785C45.5541 17.8972 45.3086 18.2789 44.9942 18.6002C44.6799 18.9216 44.3032 19.1759 43.8872 19.3478C43.4711 19.5196 43.0243 19.6055 42.5739 19.6H42.5487ZM45.624 2.64703V9.20895C44.4983 8.51705 43.1993 8.15585 41.8765 8.16691C37.2551 8.16691 33.957 11.5148 33.957 16.1642C33.957 20.8137 37.2551 24.1783 41.8765 24.1783C43.5381 24.1939 45.1511 23.6198 46.4265 22.5588L46.9138 23.672H50.758V0.893555L45.624 2.64703Z" fill="white"></path>
  <path d="M96.6305 8.21252C95.1646 8.22007 93.745 8.72488 92.6057 9.64376V0.914062L87.4297 2.64661V23.6715H92.6225V15.6533C92.6225 13.7282 93.6014 12.615 95.1727 12.615C96.5255 12.615 97.1389 13.498 97.1389 15.2306V23.6715H102.332V14.6322C102.332 10.7402 100.105 8.21252 96.6473 8.21252" fill="white"></path>
  <path d="M18.4464 40.65C18.4307 39.9915 18.2203 39.3522 17.8415 38.8122C17.4628 38.2722 16.9326 37.8555 16.3172 37.6142C15.7018 37.373 15.0287 37.3179 14.3821 37.4559C13.7354 37.594 13.144 37.9189 12.6819 38.3901C12.2198 38.8614 11.9076 39.4579 11.7842 40.1051C11.6609 40.7523 11.7319 41.4213 11.9885 42.0284C12.2451 42.6356 12.6757 43.1538 13.2266 43.5183C13.7775 43.8828 14.424 44.0773 15.0853 44.0775C15.5353 44.084 15.982 43.9993 16.398 43.8283C16.814 43.6574 17.1908 43.4038 17.5052 43.0831C17.8197 42.7625 18.0653 42.3814 18.2271 41.963C18.3889 41.5447 18.4635 41.098 18.4464 40.65ZM23.3829 33.1172V48.1284H19.3707L18.9253 47.0696C17.6367 48.1016 16.0286 48.6562 14.3753 48.639C9.75388 48.639 6.47266 45.2911 6.47266 40.6207C6.47266 35.9504 9.76648 32.6694 14.3753 32.6694C16.0578 32.6498 17.6937 33.2202 18.9967 34.2806L19.5261 33.1214L23.3829 33.1172Z" fill="#1873F2"></path>
  <path d="M5.19281 25.3418H0V48.1746H5.19281V25.3418Z" fill="#1873F2"></path>
  <path d="M33.1334 44.0862C32.4523 44.0995 31.7826 43.9104 31.2099 43.543C30.6371 43.1756 30.1873 42.6465 29.9177 42.0233C29.6481 41.4001 29.5711 40.7111 29.6963 40.044C29.8216 39.377 30.1436 38.7623 30.6211 38.2784C31.0986 37.7944 31.71 37.4631 32.3774 37.3268C33.0447 37.1904 33.7377 37.2552 34.3679 37.5129C34.9981 37.7706 35.537 38.2094 35.9157 38.7735C36.2945 39.3375 36.4959 40.0011 36.4944 40.6797C36.5099 41.1263 36.4339 41.5713 36.2713 41.9877C36.1086 42.404 35.8625 42.7831 35.5481 43.1018C35.2337 43.4204 34.8575 43.6721 34.4424 43.8413C34.0272 44.0105 33.5819 44.0939 33.1334 44.0862ZM33.8266 32.6991C32.5045 32.6886 31.206 33.0482 30.079 33.737V25.3672L24.9492 27.0537V48.1832H28.7892L29.2808 47.0701C30.557 48.1253 32.168 48.6948 33.8266 48.6771C38.448 48.6771 41.746 45.3542 41.746 40.6881C41.746 36.0219 38.469 32.6991 33.8266 32.6991Z" fill="#1873F2"></path>
</svg>
